<?xml version="1.0" encoding="utf-8"?>
<!-- Generator: Adobe Illustrator 24.0.3, SVG Export Plug-In . SVG Version: 6.00 Build 0)  -->
<svg version="1.1" id="Layer_1" xmlns="http://www.w3.org/2000/svg" xmlns:xlink="http://www.w3.org/1999/xlink" x="0px" y="0px"
	 viewBox="0 0 1024 768" style="enable-background:new 0 0 1024 768;" xml:space="preserve">
<style type="text/css">
	.st0{display:none;fill-rule:evenodd;clip-rule:evenodd;}
	.st1{fill-rule:evenodd;clip-rule:evenodd;fill:#FD5200;}
	.st2{fill-rule:evenodd;clip-rule:evenodd;}
</style>
<g id="react-group-118">
	<g id="react-group-119">
		<rect id="react-rect-121" class="st0" width="1024" height="768"/>
		<path id="react-path-122" class="st1" d="M281.5,633.8c0.1-40.6,0.9-81.3,2.3-121.9c1-30.1,2.3-60.2,4.8-90.2
			c1-11.9,2.2-23.8,4-35.6c1.1-7.3,2.2-15.3,5.3-22.1c1-2.2,2-3.7,4.1-4.8c7.9-4.2,18.8-4.8,27.6-5.7c14.3-1.5,28.9-1.9,43.3-1.6
			c-0.8,15.5-1.7,31-2.5,46.5c-0.6,11.9-1.3,23.9-2,35.8c-0.4,7.5-1.4,15.3-1.2,22.8c0.1,6.1,7.4,12,11,16.8
			c4.5-13.8,9-27.6,13.5-41.4c2.4,6.2,4.9,12.3,7.7,18.2c1.8,4,3.7,8,6.1,11.6c2.2,3.3,2.9,3.8,6.7,3.2c4.6-0.7,8.2-2.1,10.9,1.4
			c2.4,3.1,4.7,6.2,7.3,9.1c29.1,32,74,51.9,115.5,60.9c24.5,5.3,49.2,9.6,73.6,15c37.4,8.2,75.7,16.4,111.4,30.5
			c5.6,2.2,11.2,4.6,16.3,7.8c5.6,3.5,9.6,8.9,13.5,14.2c9.5,13,20.7,34.2,6,47.8c-11.2,10.4-28.8,11.4-43.4,12.6
			c-15.1,1.2-30.3,1.8-45.4,2.3c-41.2,1.3-82.5,1.6-123.8,1.7c-37.7,0-75.4-0.2-113.1-0.9c-17.1-0.3-33.6,0.1-50.1-4.3
			c-33.9-9-67.6-18.3-101.4-27.6C287,635.3,284.2,634.6,281.5,633.8"/>
		<g id="react-group-120" transform="translate(135.999936, 31.999524)">
			<path id="react-path-123" class="st2" d="M489.6,246.8c-1.6,1.6,1,2.9,2.1,3.3C491.6,248.5,490.8,247.7,489.6,246.8L489.6,246.8z
				 M272.8,555.8c-0.6-1.4-1.5-2.6-3.2-1.9C266.9,555,272.4,555.8,272.8,555.8L272.8,555.8z M511.9,324.1c1.1,0.1,5.8-0.1,4.3-2.7
				C514.6,318.5,512.3,323.2,511.9,324.1L511.9,324.1z M428.5,298.2c2.4-2.1,4.6-5.3,4.7-8.6C430.9,291.1,429.6,295.8,428.5,298.2
				L428.5,298.2z M487.1,256.1c2,0.1,0.2-2.8,0.2-3.3c0-1.2,1.2-2.3,1-3.7c0-0.1-2.1-4.7-2.6-4.9c-1.5-0.8-2.4,0.7-3.8,1.1
				c-2,0.7-3,0.1-5.2,0.3c-1.9,0.2-3.5,1.1-5.5,1.1c-0.5,0-1-1-1.5-1c-0.9,0.1-0.9,1.2-1.5,1.2c-2.1,0.2-2.2-0.7-4.2-1.4
				c-3.3-1.3-5.6,1.7-5.5,5.3c0.1,4.8,5.1,6.7,8.9,7.8c4.9,1.4,7.7,2.3,12.7,1.4c1.4-0.3,2.9,0.2,4.1-0.8c1.5-1.3,0.7-4.2,2.5-5.5
				C486.7,254.5,486.9,255.3,487.1,256.1L487.1,256.1z M313.9,446.2c0.4,3.1-0.4,4.7,2.6,6.8c1.8,1.2,4,2,5.9,3.3
				c2.7,1.8,6.9,2.9,9.3,5c1.5,1.3,1.8,5,4,5.5c1.8,0.4,4-2.9,4.6-4.4c0.7-1.6,0.2-3,0.5-4.6c0.2-1.1,1-1.3,0.9-2.6
				c-0.2-1.4-1.5-2.1-2-3.2c-0.5-1-0.7-2.3-1.1-3.1c-0.9-1.8-3-5.6-4.9-6.8c-1.6,4.1-2.8-0.1-5-1.3c-0.8,0-1.6,0-2.4,0
				c-0.4-0.4-0.9-0.8-1.3-1.2c-1-0.1-2.7,0.4-3.6,0.7c-0.5-0.1-1-0.2-1.5-0.2c-0.7,0.2-1,0.6-0.8,1.1c0.3-0.1-1.4,0.9-1.5,1
				c-3.3,2.2-6.2,3.1-6.8,7.8C311.7,448.8,312.8,447.5,313.9,446.2L313.9,446.2z M339.2,278.4c-3.5-9-2.4-17-2-26.4
				c0.1-2.2,0.6-7-1.8-8.4c-2.9-1.8-5.3,2.3-6.8,4c-2.6,2.9-6.2,5.6-7.5,9.5c-1.2,3.4,0,7.5,0.9,10.9c1,3.6,2.2,8.4,5.4,10.4
				C331,280.4,335.7,280.2,339.2,278.4L339.2,278.4z M461.8,470.1c-0.5-6.9-10.1-4.5-14.4-2.4c-3.2,1.6-5,4-7.1,6.9
				c-2.3,3.3-3.1,4.2-2.9,8.1c0.2,3.6,0,7.1,0.9,10.7c0.5,1.8,0.6,2.1,1.7,3.4c0,0,2.1,2.1,1.5,1.7c2.7,1.5,6.6,1.8,9.8,2
				c4.5,0.3,5.6,0.4,7.4-3.9c0.3,0.7,0.7,1.5,1,2.2c0.1-0.5,1.4-6.7,1.1-6.7c-0.5,0.1-1,1.6-1.3,1.9c0.2-2.9,2.2-5,3.2-7.6
				c0.9-2.3,1.3-5,2-7.4c0.7-2.4,1.4-5.6,0.8-8.1C464.6,467.8,464.3,468.7,461.8,470.1L461.8,470.1z M519.8,317.8
				c1.6,1.5,0.2,3.9,0.4,5.7c2.1-1.3,1.4-2,2.2-4.1c0.5-1.4,2.1-4,3.5-1.7c0.6,0.9-1.3,2.2,0,2.8c0.8,0.3,2.8-2.2,3.1-2.6
				c2.5-2.7,4.1-5.5,4.4-9.3c0.1-1,0-3.6-0.3-4.2c-1.1-1.7-3.8-0.7-3.6-3.8c1.1,0.6,2.2,1.1,3.3,1.7c0.3-3.5-3.4-5.5-5-8.3
				c-1.8-3.1-3-5.4-5.9-8.1c-1.3-1.3-3.5-3.8-5.3-4.4c-1.4-0.5-1.9,0.2-3.3,0.2c-2.9,0-7.2-0.7-2.9,2.4c-0.9,0.4-2,0.7-2.7,1.3
				c-0.5,0.5-0.8,1.8-1.4,2.2c-1.4,0.7-2.4-0.7-4,0.9c-1.6,1.6,0,2.7-0.3,3.4c-1.1,2.1-2.5,1-2.5,4.2c0.1,5.2,3.1,11.4,4.7,16.3
				c1,2.9,2,7.4,6,6.2c-0.2,1.4-0.5,2.7,0.4,3.9c0.8-1,1.1-3.1,1.7-4.3c0.8-1.7,2.2-3.4,3.1-5c-0.1,2.6-0.4,3.3-2.2,5.3
				C515.6,318.7,518.5,320.5,519.8,317.8L519.8,317.8z M348.5,393.6c2.1-1.6-0.7-3.4,3.6-2.5c1.1,0.2,0,1.5,1.6,1.5
				c0.6,0,2.1-1.5,2.6-1.9c0.4-0.3,2.1-2.7,2.4-2.8c-0.5,0.3,2.1-0.8,1.3-0.1c1.6-1.2,2.7-3.3,3.4-5.8c1.7-6.1,1.5-13.4-2.1-18.7
				c-1.5-2.2-2.7-4.9-4.9-6.4c-3-2-8.1-3.2-11.4-4.5l1.1-2.7c-9.3,4.2-15.7,14-16.5,24c-0.3,3.6-1.3,8.2,0.9,11.3
				c2.3,3.3,8,6.8,11.2,3.1c-0.5,2.1,0.9,4.5,3.1,5c0.8,0.2,1.6-0.4,2-0.3C347.2,393.1,348.2,393.7,348.5,393.6L348.5,393.6z
				 M263,185.2c-6.3-0.7-5.3,10.6-4.1,14c0.9,2.7,4.3,6.5,6.1,8.9c2.1,2.8,5,5,8,6.8c1,0.6,1.8,0.8,2.7,1.2c0.3-0.3,0.7-0.5,1.1-0.5
				c0.4,0.7,0.9,1.1,1.7,1.5c2.3,0.7,6,0.6,8.3,0.5c3.6-0.2,7.9-2.3,11.5-2.9c1.7-0.3,2.6-0.5,4.1-1.3c0.8-0.4,2.2-3.9,2.4-0.5
				c0.9-0.6,0.6-1.5,1.3-1.9c0.7-0.4,2.7-0.8,3.5-1.7c1.1-1.2,2.5-4,3.3-5.7c0.5-1.1,1.5-3.9,1.4-5c-0.2-2.4-0.9-1.8-3-2.8
				c-1.4-0.7-2.1-1.2-3.5-1.6c-0.2,0-0.5,0.8-0.8,0.7c-0.5-0.1-0.7-0.7-1-0.8c-2.5-0.8-5.4-3.2-8.5-3c-1.3,0.1-2.6,2.1-3.3,2
				c-1-0.2-0.5-2.3-1.3-3.1c-1.9-2-8.1-1.7-10.5-2C276.2,186.9,269.6,186.1,263,185.2L263,185.2z M482.2,357
				c0.6-4.7,1.3-9.3-3.8-11.7c-1.9-0.9-3.5-0.6-5.5-0.8c-2.6-0.3-2.2-1.4-4.1,1.3c-1.1-1.4-0.4-1.8-2.1-2c-0.7-0.1-3.8,2-4.6,2.3
				c-3.4,1.4-7.7,1.3-10.2,4c-2.5,2.7-4.5,5.3-5.5,9c-0.5,1.9-0.9,3.8-1.5,5.6c-0.7,2-2.3,3.7-2.8,5.7c-2.2,8,7.2,15.4,13.7,17.5
				c0.8-0.2,1.7-0.1,2.5,0.2c0.6,0.4,1.1,0.8,1.5,1.3c2.1,0.6,2.6,0.4,4.7-0.5c3.5-1.6,7.5-2.1,10.2,1.6c0.8-4.3,3.8-1.7,5.2-4.5
				c0.8-1.5-0.9-5.7,0.1-6.8c1.7-1.9,7,1.4,6.8-2.9c0-1.6-1.8-2.1-2.5-3.3c-1.1-2.2-0.5-4.6,1.1-6.6c0.1,0.3,0.7,2.6,1.4,2
				c2-1.6-1.3-4-2-4.9c-1.2-1.4-2.2-2.5-2-4.5c0.2-1.2,2.1-2.5,2-3.7C484.7,354.6,482.3,356.9,482.2,357L482.2,357z M390.7,407.6
				c0.1,3.3-2,3.7-3.4,6c-0.4,0.6-0.4,2.1-0.9,3c-1,1.7-1.7,1.8-2,3.4c0-0.2,0.5,1.6,0.5,1.8c0.1,2.3-1.5,4.2-1,6.7
				c0.6,3.6,3.4,7.6,5.3,10.6c4.3,6.7,10.4,12,18.7,12.5c5.6,0.3,18.6-1.9,19.8-7.7c-0.3-0.7-0.6-1.4-0.8-2.1
				c-0.1-1,0.3-1.7,1.1-2.1c0.7-0.2,1.2-0.6,1.6-1.1c-0.2-0.6-0.5-1.1-0.9-1.6c0.2-0.8,1.5-0.8,1.4-1.3c0-0.9-0.9-3.3-1.1-4.3
				c-0.4-1.8-0.6-3.6-0.9-5.4c-0.3-1.5-1.2-2.2-1.4-3.6c-0.2-0.9,0.8-1.8,0.7-2.8c-0.6-0.6-1.1-1.2-1.5-2c0-0.8,0.1-1.5,0.6-2.2
				c-0.9-6.5-10.2-12-16.8-12.2c-3.5-0.1-9.6-0.3-12.8,1.5C395,406,393.5,410.4,390.7,407.6L390.7,407.6z M248.8,638
				c-4.6-2.1-8.8-4.3-13.8-5.3c-3.6-0.7-6.7-2.8-10.3-3.4c-8-1.5-16.6-2.8-24.3-5.6c-8.2-3-17.2-4.1-25.6-6.6
				c-4.2-1.2-7.8-2-12.1-2.3c-4.2-0.2-8.5-2.6-12.7-2.2c-3.5,0.3-6,3-8.7,4.9c-3.5,2.5-7.4,4.6-11.2,6.7c-4,2.2-8.5,3.3-12.5,5.4
				c-3.3,1.8-6.6,3.5-10,5.1c-18.1,8.6-35.7,16.6-52,28.5c5.3,1.6,11.3,0,16.5-0.6c7.5-0.8,14.9-1.4,22.3-2.8
				c4.3-0.8,12.7-3.9,16.9-1.5c3.6,2.1,3.3,7.4,3.9,11c3.4-1.3,6.8-2.7,10.3-3.9c2.7-1,7.1-3.7,9.9-3.8c7.7-0.3,6.9,10.6,6.1,15.5
				c4.5-1.5,8.8-2.6,13.1-4.5c3.5-1.5,7.4-1.9,10.8-3.7c8.4-4.5,17.8-7.3,26.9-10.5c10.2-3.6,20.4-7.3,30.5-11.1
				c4.2-1.6,8.3-3.7,12.5-5C239.7,641.1,244.4,640.1,248.8,638L248.8,638z M349.4,225.7c-0.6,6.1,0,12.2,0.2,18.3
				c0.2,7.1,0.2,14.2,1.1,21.3c1.7,12.8,4,25.6,8.6,37.7c4.2,11,11.2,18.8,23.1,21.2c10.7,2.1,21.1-1.5,27.9-10.1
				c7.1-8.9,9.2-20.1,13.4-30.3c2-5,3.5-10.1,5.2-15.2c1-3.1,6-11.9,4.6-15.1c-1.4-3.1-9.7-4.1-12.5-5.9c-4.5-2.7-8.8-8.2-12.2-12.2
				c-2.3-2.7-3.7-4.7-5.3-0.4c-1.9,5.1-0.5,11-2.3,16c-1.7,4.9-5.5,0.1-5.9-3.1c-0.7-6.1,0.2-13,0.4-19.1
				c0.5-11.4,1.3-24.6,11.6-31.7c9.8-6.7,20.3-8.7,25.8-20.3c2.2-4.6,4.7-9.5,3.4-14.6c-1.6-6-3.9-12.2-6.2-17.9
				c-4.4-11-11.3-20.6-17.3-30.7c-0.8-1.4-1-3.1-2.8-3.5c-2-0.4-6.7,3-8.6,3.5c-5.3,1.5-10-1.6-14.7,1.9c-3.7,2.8-6.9,6.9-12,7.2
				c-2.2,0.1-5.1-1.8-7-1.4c-2.4,0.6-3.1,4.2-4,6.2c-2.1,4.6-4.5,10.4-8,14.1c-1.2,1.3-3.3,1.7-4.3,2.9c-1.2,1.4-0.5,4.2-2.2,4.4
				c-1,0.1-1.8-1.2-2.6-1.5c-1.4-0.5-2.8-0.6-4.3-0.6c-2.8,0.1-5.6,0.7-8.1,2.1c-5.7,3.1-7.7,7.8-0.9,10.6c2.7,1.1,5.7,2,8.6,2.2
				c3.2,0.3,6.5-0.7,9.7-0.3c6.2,0.8,8.1,5.9,9.7,11.2c2.2,7.3,4,14.7,6.4,21.9c2,5.9,5.7,11.9,6.7,18c0.6,3.8-0.2,3.5-2.7,5.8
				c-1.9,1.8-3.1,4.1-5.2,5.9C361.2,229.1,356.2,227.8,349.4,225.7L349.4,225.7z M724.3,579.7c-0.2-1.3-27.7,1.2-30.8,0.9
				c-5.3-0.5-11,0.9-16.6,0.7c-4.9-0.2-11.9-2.1-16,0.3c-1.5,0.9-1.5,1.9-3.9,1.5c-2.2-0.4-4.5-2-6.1-3.4c-4.6-4-7.4-10.3-10.3-15.5
				c-6-10.4-11.1-21.1-16.1-32c-10.2-22.5-20.1-45.1-30.3-67.6c-5.1-11.1-9.9-22.3-15.4-33.2c-2.3-4.7-4.9-9.8-6.7-14.6
				c-2-5.3-4.5-10.3-6.3-15.8c-3.7-11.6-8.1-22.9-11-34.8c-0.7-3-1-6.2-1.9-9.1c-0.9-3.2-2.8-5.9-4-8.9c-1.2-3.1-1.2-5.9-1.8-9.1
				c-0.6-3.2-2.1-6.3-3.1-9.3c-5.4,3.3-11.6,6.2-16.6,10.1c-4.9,3.8-12.1,7-10,13.9c1.9,6.3,5.2,12.1,7.1,18.3
				c2.2,7,4.9,13.9,7.1,21c4.6,15.2,8.6,30.5,12.7,45.8c1.9,7.2,4.3,14.4,5.7,21.7c0.7,3.8,0.6,7.2,2,10.9c1.4,3.6,2.6,7.1,3.7,10.8
				c2,6.6,3.9,13.1,6,19.6c1.2,3.5,2.1,7.1,3,10.7c0.5,2.2,2.2,6.4,1.8,8.6c-1.4,6.5-10-0.1-12.1-2.8c-4.8-6.2-8.2-13.7-11.8-20.6
				c-14.4-27.7-21.4-57.5-28.8-87.7c-1.9-7.9-3.8-15.8-6-23.6c-2.3-8.2-3-16.8-5.7-25c-2.8-8.4-5.6-16.6-7.7-25.3
				c-0.9-4-2-8-2.8-12.1c-0.4-2.2-0.5-6.1-3.3-6.6c1.9,13.5,2.5,29.4,7.9,42.1c4.9,11.5,8.8,27.3,3.8,39.5c-2.4,5.9-6.1,10.9-9,16.5
				c-3.2,6.3-5.2,13.5-7.3,20.1c-4.4,13.8-5.7,28.4-8.6,42.5c-1.5,7.4-1.6,12.5-0.2,19.8c0.4,2.3-0.3,4.2,1.6,5.7
				c2,1.5,6.6,1.8,9.1,2.7c7.5,2.6,13.9,4.6,21.8,5.4c7.5,0.8,14.5,2.3,21.6,4.7c12.8,4.4,26.1,7.7,38.7,12.1
				c6.9,2.4,13.5,6.7,20.2,9.8c6.9,3.2,14.2,5.3,20.7,9.3c7,4.3,13.9,9.3,20.5,14.2c6.1,4.5,9.1,10.1,11.6,17
				c4.9,13.3,17.1,30.5,5.8,43.9c4,1.7,8.5,2.4,12.3,4.3c1.3,0.6,1.7,1.3,3.2,1.6c2,0.5,4.5,0.1,6.5,0.2c2.9,0.2,9,2.3,11.8,1.4
				c2.6-0.8,2.7-4.6,4.6-6.5c2.8-2.8,5.5-1,8.9-1.3c5.1-0.5,10.2-1.1,15.2-1.6c10.3-0.9,20.5-1.1,30.8-1.1c-5.4-6-25.1,4.9-25.6-5.9
				c-0.6-12.5,14.7-8.7,22.1-12.3c-6.7,0.2-13.5,0.3-20.2,0.8c-4.1,0.3-11.9,2.3-14.2-2.2c-2.5-4.8,1.5-10.4,5.2-12.9
				C712.6,584.3,718.6,582.1,724.3,579.7L724.3,579.7z M163.2,413.4c-1.2,2.5,0.7,3.5,1.5,5.4c1.2,2.7,0,2.2-0.2,4.8
				c-0.2,1.7,0.3,2.5,0.2,4.2c0,0.7-1,1.6-1.1,2.4c-0.2,1.4,0.6,2.1,0.5,3.1c0,0.5,0.6,0.6,0.5,1.3c-0.1,0.6-1.6,1.1-1.7,1.5
				c-0.5,2.3,0.9,1.2,1.1,2.3c0.4,1.8-0.7,2.2-1.3,3.9c-1,2.9,0,4.3,0.6,7.1c0.5,2.3-0.3,2.3-0.6,4.5c-0.2,1.3,0.2,1.5,0.2,2.8
				c0,4.3-1,8.8-1,13.4c-0.1,10.8-1,21.5-1.1,32.3c-0.1,10.6-0.9,21.3-1.4,32.1c-0.2,5.2-0.8,10.5-1,15.7
				c-0.3,6.1,0.3,12.1-0.2,18.2c-0.5,5.5-0.2,11-0.4,16.5c-0.1,2.6-1.5,10.5,0.3,12.3c2.2,2.3,11.3-0.1,14.2,0
				c5.5,0.3,11.3,1.4,16.7,2.5c12.8,2.7,25.6,6.1,38.4,8.5c10.7,2,20.7,7.1,30.6,11.5c-0.9-9.1-2.5-18-2.8-27.2
				c-0.3-8.3,0.5-16.5,0.3-24.7c-0.4-17.6-1.4-35-1-52.6c0.4-17.9,1.8-36.2,4.3-53.9c1.1-8.1,2-16.8,5-24.6c1.3-3.5,3.5-6.1,2.6-9.9
				c-1-4.2-2.9-8.5-4.3-12.6c-1,6.6-4.7,50.5-19.7,37.3c-5.9-5.2-8.6-16.3-9.9-23.7c-1.8-9.9-1.1-20.3-1.1-30.3
				c0.1-20.4,2.3-41.2,4.4-61.5c0.4-4.1,2.5-7.7-2.7-7.5c-4.9,0.2-9.9,1.3-14.7,1.9c-4.2,0.5-8.4-0.7-12.4-0.2
				c-1.8,0.2-3.5,1.3-5.3,1.6c-2.3,0.3-4.8-0.2-7.1-0.2c-4,0-8.6,0-11.9,2.5c-3.5,2.6-6.4,6.9-7.6,11c-1.2,4.1-0.9,8.8-1.6,13
				c-0.6,3.5-0.8,7.8-1.3,11.8c-2.5-3.1-2.3,1.4-2.4,2.7c0,1.6-1.8,4.9-1.3,5.8c0.3,0.6,2.2,0.3,2.4,0.8c0.3,1-0.8,1.4-0.9,2.1
				c-0.1,2.9,0.1,5.9,0.1,8.8c-0.7-0.5-1.4-1-2-1.6c-0.4,0.8-0.5,1.8-0.8,2.6c-0.2,0.4-1.6,0.3-1.7,1c-0.1,0.9,1.9,2.7,2.3,3.7
				c0.7,1.8,1.1,1.1,0,3c-1.4,2.2-3.6,2.4-3.2,5.6c0.7-0.6,1.3-1.2,1.9-1.9c0.3,1.9-0.5,3.6-0.6,5.6c-0.1,1.3,1.5,6.3,0.3,7.1
				C164.6,415.5,163.3,413.5,163.2,413.4L163.2,413.4z M264.6,255c0-4.2-6.2-10.8-8.3-14.3c-3.4-5.7-7-10.8-11.4-15.8
				c-4.3-5-9-9.8-13.2-14.9c-1.7-2.1-3-4.6-4.8-6.7c-2.2-2.6-2.7-1.8-5.4-1.7c-2.1,0.1-3.5-0.3-5.4,0.3c-1,0.3-1.7,0.8-2.8,1.1
				c-0.7,0.2-1.6-0.5-2.5-0.2c-2.3,0.8-3.1,2.8-5.8,2.8c-0.3,0-1.4-0.8-1.5-0.7c-0.2,0.1-1,0.7-1,0.7c-0.2,0-0.1,1.3-0.6,1.6
				c-0.8,0.4-1.4-0.9-2.2-0.8c-1.9,0.2-3.4,2.2-5.5,2.7c-2.7,0.6-5.1-0.3-7.7,1c-2.1,1-3.1,3.3-4.9,0.9c-1.6,3.3-4.5,2.3-7.4,3.7
				c-4,2-8.4,3-12.7,4.4c-8.8,3.1-17.8,6.2-26.4,9.9c-17.9,7.6-35.2,16.1-52.7,24.3c-17.1,8-32.9,18.6-48.3,29.3
				c-7.5,5.2-15,10.8-20.9,17.9c-1.8,2.2-4.8,5.6-3.6,8.6c1.3,3.2,6.6,5.2,9.7,5.9c4,0.8,8.4,1.1,12.4,1.4c4.4,0.3,9.1,0.4,13.4,0.4
				c8.5-0.1,16.9-1,25.5-1.1c9.8-0.2,19.3-2.3,29.1-2.4c10.7-0.1,21.3-1.5,32-1.1c20.7,0.8,41.4,1.4,62.1,1.5c2.6,0,5.1-0.3,7.6,0.2
				c2.1,0.4,3.5,1.1,5.7,0.9c2.1-0.1,4-1,6.1-1.2c2.8-0.1,5.6,0.3,8.3,0.3c9.3-0.2,20.4-1,29.4,1.9c3.6,1.2,8.1,4.6,5.9,9
				c-2.2,4.4-7.7,0.8-11.1,2.8c-3.2,1.9-1.4,6.9-1.2,9.9c0.4,5.7,0.5,11.4,0.3,17.2c-0.3,12.7-1.1,25.3-1.3,38
				c-0.1,6.2,0,12.3,0.3,18.5c0.3,5.4,0.1,11.3,2,16.5c2.6-6.5,2.9-13.6,3.9-20.4c1.1-7.4,2.2-14.8,3.2-22.1
				c0.6-4.4,1.3-30.7,9.9-27.3c9.1,3.7,6,23.9,6.4,31.2c0.4,6.9,1.1,13.7,2.7,20.4c0.7,3.1,2.7,16.4,6.7,17.2
				c2.9-13.9,6-27.7,8.2-41.8c1-6.2,1.8-12.4,2.2-18.7c0.2-3.3,0-11.1,4.7-11.5c13.8-1.1,4.6,57.2,14.9,64.5
				c3.8-7.6,5.3-15.5,6.4-24c0.5-3.8,1.5-8.2,0.9-12c-0.8-5-1.6-8.1-0.6-13.3c0.9-4.3,1.5-8.6,2.5-12.9c0.7-3,2.6-4.5,3.6-7.3
				c2.8-7.7,2.6-17.5,3.7-25.6c1.1-8.2,2.3-16.3,0.9-24.6c-1.4-8.2-7.4-10.8-14.3-14.2c-6.9-3.4-13.5-7.2-21.1-8.7
				c-8.5-1.7-16.3-3.3-24.9-3.8c-15.3-0.8-30.3,0.1-45.6,0.9c-17,0.8-33.9-0.2-50.9-0.4c-8.2-0.1-16.6-0.3-24.9-0.1
				c-4.1,0.1-8.1,0.8-12.3,0.7c-3.5-0.1-10.4,1-13.5-0.9c-2.4-1.5-2.4-4.7-0.4-6.5c2-1.8,6-1.9,8.6-2.4c8.1-1.8,16.2-2.8,24.3-4.2
				c4.7-0.8,8.6-1.1,13.4-0.9c4.6,0.2,9.2-1.1,13.9-1.3c9.8-0.5,19.7-0.9,29.5-1.1C226.8,256.4,245.6,254.9,264.6,255L264.6,255z
				 M274.5,440.9c-1.5,0.6-1.1,7.9-1.3,9.4c-0.4,4.4-0.9,8.7-1.3,13.1c-0.9,10.1-1.6,20.2-2.1,30.3c-0.6,10.1-1.2,20.3-1.2,30.4
				c0,4.3,0.2,8.6,0.1,12.9c-0.1,3.2-1.5,9.3,1.3,11.5c1.8,1.5,5.5,0.8,7.6,0.7c4.3-0.3,8.5-0.6,12.8-0.6c4.9,0,9.8,0.5,14.8,0.4
				c1.9,0,4-0.4,5.9,0c1.4,0.3,2.8,1.4,4.1,1.5c0.9,0,2.2-0.9,3.2-1.1c1.6-0.3,3.5,0,5.1,0c1.2,0,4-0.5,5.1,0.1
				c1,0.7,0.6,2.2,1.6,2.5c0.4,0.1,2.4-2.3,2.8-2.5c1.6-0.7,3.9-0.2,5.6-0.1c4.8,0.1,9.7-0.3,14.5-0.2c4.7,0,9.2,0.6,13.8,1.1
				c3,0.4,6.4-0.5,9.6-0.8c5.1-0.4,10.2-0.3,15.2-0.2c2.6,0.1,5.1,0.1,7.7,0.2c0.6,0,1.8-0.2,2.4,0c2.3,0.7,0.9,0.7,2.5,1.8
				c-2.2-1.4,4.9-2.3,5.3-2.3c3.2,0,6.1,1.5,8.8,1.2c2.9-0.3,5.8-2.1,9-1.6c1.5,0.3,2.7,1.9,3.8,2.1c1.8,0.3,2.4-1,4-1.6
				c3.2-1.3,7-0.2,10.4-0.4c4.8-0.3,9.3-0.3,14.1-0.4c8.7-0.1,17.4-0.3,26.2-0.2c8,0.1,14.5,3.3,22.5,3.1c4.2-0.1,8.5-0.5,12.6-0.4
				c3.6,0.1,5.4,2.8,2.7,5.9c-1.8,2.1-5.2,2.4-7.8,2.7c-3.8,0.6-7.6,1.4-11.4,2.1c-9.1,1.5-18.6,1.5-27.9,1.8
				c-37.6,1.1-75.1,4.5-112.7,4.8c-16.5,0.2-33.2,1.5-49.6,0.9c-9.2-0.4-18.2,1.6-27.4,0.2c-3.9-0.6-7.7-1-11.7-1.2
				c-0.5,0-3.5-0.6-4.1-0.4c-1.7,0.8-0.7,0.1-1.4,2c-1.2,3.2-0.7,8.3-0.7,11.6c0,5.4,0.3,10.8,0.5,16.2c0.2,5.2,0.5,10.3,0.8,15.5
				c0.1,2.1-0.7,10.2,0.9,11.8c1.3,1.2,7.2,0.6,8.9,0.3c1.9-0.4,2.1-0.5,4.2-0.3c1.5,0.2,2.1,0.1,3.6,0c4.4-0.5,9.5-0.6,14,0.2
				c3.5,0.6,7.1-1,8.4,2.6c2.2-2.7,2.2-1.2,4.6-0.6c2.5,0.6,1.8-1.1,3.9-1.3c1.5-0.2,2.9,1,4.5,1c2.7,0,5.1-0.7,8-0.3
				c12.7,1.6,25.7,3,38.5,3.1c5.3,0.1,10.6,0.1,15.9,0.3c2.7,0.1,5.3,0.4,7.9,0.7c2.5,0.3,4.5-0.3,7.1-0.4
				c5.8-0.3,11.8,0.6,17.6,0.9c2.7,0.1,6.1-0.3,8.7,0c2.6,0.4,2.8,2.3,4.9,3.5c0.3-6.4,13.8-2.3,17.3-2.3c1.4,0,3.1-0.6,4.7-0.5
				c2.7,0.2,5.5,0.2,8.3,0.3c4.4,0.2,8.6,0.4,12.8-0.1c5.4-0.7,11.4,0,16.9,0c6,0,12-0.1,18-0.3c6.1-0.2,12.1-0.6,18.2-0.8
				c5.3-0.2,10.9,0.3,16.1-0.1c1.3-0.1,2.6-1.1,3.8-1.1c1.7-0.1,3.5,0.6,5.5,0.5c6.1-0.5,11.7-0.6,17.9-0.6
				c10.5,0,21.5-1.9,31.6-4.7c4.7-1.3,9.5-1.4,14.1-2.7c5.3-1.6,10.2-4.4,15.1-6.9c3.8-2,9.2-2.9,7.7-8c-1.7-5.4-4.3-10.7-6.3-16
				c-1.7-4.6-2.8-9.2-6.6-12.6c-3.7-3.4-8.4-5.8-12.4-8.9c-8.6-6.9-17.6-11.1-27.7-15.2c-10.3-4.1-19.6-10.2-30.4-13
				c-10-2.6-19.7-6-29.5-8.6c-10.7-2.9-21.8-3.9-32.6-6.4c-10.4-2.4-20.6-6-31.1-7.9c-11.4-2-22.8-3-34.2-5.5
				c-9.6-2.1-18.8-6.1-28.4-7.8c-2.8-0.5-5.9-0.8-8.6-1.7c-2.6-0.8-4.4-2.5-7-3.2c-6-1.6-11.1-3.7-16.8-6.3
				c-2.4-1.1-3.7-2.4-5.7-3.7c-2.5-1.6-5.6-2.1-8.3-3c-5.3-1.7-10.6-3.3-15.3-6.3c-4.9-3.1-9.5-6.5-14-10.1c-1.9-1.5-4-3-5.9-4.5
				c-2.4-1.7-4.9-2.1-7.6-3.2c-11.8-4.9-17-16.6-23.4-26.7C287.2,444.9,279.4,448.7,274.5,440.9L274.5,440.9z M442.1,297.5
				c0.8-3.7,2-8.9-2.6-9.1c-0.3,0-3.3,0.7-3.6,0.9c-1.6,1-2.1,4.3-2.7,6c-0.5,1.4-0.9,3.3-2,4.4c-1.1,1.1-2.3,1.1-3.4,2.4
				c-3.3,3.9-5.7,10.6-7.6,15.3c2.7-0.6,0.7,1.1,1.9,2.2c1.8,1.6,1.2,1.3,3.7,1.6c4.4,0.4,6.4-0.7,9.8-3.5c2.9-2.3,3.9-3.8,5.5-7.2
				C443.4,305.6,442.3,302.6,442.1,297.5c1.2,1.1,2.4,2.2,3.6,3.3c-0.4-1.5-0.7-2.9-1.1-4.4L442.1,297.5z M315.7,8.1
				c2.3-8,6.7-8.6,12.6-2.8c0.9-2.1,2-5.2,4.7-5.2c1.9,0,2.3,1.6,3.5,2.6c1.6,1.3,2.8,1.7,4.7,2c4.3,0.7,8.3,0.5,12.3,2.4
				c3.7,1.8,5.4,4.3,8.3,6.9c2.7,2.5,4.6,0.9,7.6,2.1c3.4,1.4,4.9,5.5,5.5,8.8c0.8,4,0,5.3,2.8,8.3c2.7,2.8,4.1,6.3,4.4,10.1
				c0.3,3.6-0.5,7.9-2.6,10.9c-2.3,3.4-4.8,2.5-1.7,6.5c1.5,2,1.7,6.4,3.6,7.7c3.2,2.3,7.4-1.4,10.2-2.3c3.9-1.3,3,0.9,4.7,3.4
				c2.5,3.8,4-0.1,7.4,0.6c1.3,0.3,1.6,1.6,2.1,1.8c1.6,0.6-0.1,0.4,1.7-0.3c1.2-0.4,0.4-2.7,2.8-1.4c1.7,0.9,0.4,2.5,1.2,3.7
				c1.5,2.3,3.7,1,4.8,4c1.1,3,2.6,6.9,3.2,10.2c0.7,4-1,7.4-0.7,11.1c0.3,3.9,4.1,6.5,6.5,9.3c11.8,13.4,16.8,31.1,20.7,48.1
				c3.6,15.9-2.7,33.8-15.1,44.6c-6.3,5.4-14.1,7.8-20.1,13.8c-2.7,2.7-2.6,3.5,0.5,5.7c2.6,1.8,5,4.1,7.8,5.5
				c7.1,3.6,14,6.2,22,7.7c4,0.8,8.2,0.5,12.2,0.3c4.2-0.1,9,0.4,13.1-0.1c3.6-0.5,6.5-3.4,10.3-3.1c1.5,0.1,2.4,0.7,3.9,0.6
				c2-0.2,3.7-1.2,5.8-1.2c3.2,0.1,6.4,0.1,9.5,0.3c3.5,0.1,7.7-0.8,11.2-0.2c3.3,0.6,7.3,3.6,10.2,5.3c3.6,2.2,7.9,4.7,11.1,7.3
				c3,2.5,5.2,6.5,7.5,9.6c2.5,3.3,5.4,6.2,7.9,9.5c9.9,12.9,20.4,28.7,23.5,44.9c0.8,4.1,0.7,8.1,0.2,12.3c-0.5,3.7-4,5.1-4.1,9
				c-0.2,8,3.6,17.3,5.8,24.9c2.3,8,5.3,15.7,8.9,23.2c1.4,2.9,3.2,5.3,4.1,8.3c1.1,3.7,2.7,7.2,3.9,10.9
				c10.4,32.1,26.6,62,38.4,93.6c6.3,17,13,33.8,19.9,50.6c3.4,8.3,7.1,16.3,10.8,24.4c0.5,1.1,0.8,3.1,1.7,3.9
				c1.4,1.2,0.2,0.5,2.2,0.3c1.7-0.2,3.5-1,5.3-1.3c4.2-0.7,8.5-0.8,12.8-1.2c4.9-0.5,9.2-0.7,14-0.5c4.5,0.2,9-1.1,13.5-1.4
				c9.7-0.6,19.2-0.3,28.9-0.1c7.5,0.1,17.2-0.8,24.2,2.7c7,3.5,4.6,11.6-1.3,14.7c-7.1,3.7-15.5,4.2-22.5,8
				c5.3,1.6,11,1.2,16.4,2.5c3.5,0.8,8.9,1.4,11.5,4c2.5,2.5,2.3,6.7,0.6,9.6c-2.1,3.6-6.1,4.2-9.7,5.5c1.6,2.2,4.2,2,5.6,4.8
				c1.9,3.8,0.7,7.8-1.7,11.1c-5.2,7.1-15.4,7.7-23.4,8.7c-7.9,1-16.1,1.2-24,0.7c-4.5-0.3-8.9-0.5-13.4-1.2
				c-5.1-0.7-4.6,2.9-6.4,6.5c-1.8,3.6-4.3,5.1-8.2,4.9c-4.3-0.2-9-0.5-13.2-1.2c-4-0.7-7.5-2.8-11.4-3.6c-3.5-0.8-6.3-2-9.6-3.7
				c-3.8-1.9-5.8-5.2-9.1-7.4c-3.4-2.3-7,1.3-10.3,3.1c-8.2,4.4-17.1,6.3-26,8.4c-9.1,2.2-18,5-27.2,6.5c-4.3,0.7-8.4,0.6-12.7,1.1
				c-4.9,0.5-9.2,2.4-14.3,2.4c-17.8,0-35.7,3.3-53.6,3.8c-17.6,0.6-35.6-0.9-53.2,0.3c-9,0.6-17.7-0.6-26.7-0.1
				c-9.2,0.5-18.8,0-28-0.7c-19.1-1.5-37.7-1.1-56.6-2c-9.9-0.5-19.9-1.4-29.6-3c-9.5-1.5-20.3,0.2-27.1-8.1
				c-0.7,3.3-0.9,6.6-3.3,9.2c-2.5,2.7-6.5,3.8-9.9,5c-8.5,3.1-17.2,6.1-25.8,9.1c-8.2,2.8-16.4,5.9-24.6,8.5
				c-8.6,2.7-16.9,6-25.4,9.2c-7.7,2.9-15.7,5.2-23.1,8.7c-3.1,1.4-6.3,1.6-9.2,2.9c-3.6,1.7-7,3.2-10.8,4.4c-3.3,1-6.4,1.8-9.6,3.1
				c-3.2,1.3-7.7,3.6-11,1.9c-2.3-1.2-3.3-4.1-4-6.4c-0.9-3-0.1-8.1-3.6-8c-3.5,0.1-8.4,3.5-11.8,4.6c-4.1,1.4-8.2,3.6-12.4,4.4
				c-4.2,0.8-7.5,0.5-9.7-3.4c-2.5-4.4-2.1-9-1.3-13.8c-7.1,0-13.7,0.7-20.9,0.9c-4,0.1-7.8,0.3-11.8-0.1c-3.6-0.4-8.9,0.7-12-0.9
				c-6.3-3.3-5.4-12.7-2.2-17.8c1.8-2.9,4.5-4.8,7.3-6.5c3.5-2.2,6.1-4.6,9.2-7.4c-2-1.4-4.6-0.7-6.6-2.4c-1.5-1.3-2.5-3.4-3.2-5.2
				c-1.3-3.4,0.4-11.2-2.6-13.1c-1.6-1-4.4-0.6-6.1-1.4c-2.5-1.1-4.2-3.2-5.2-5.7c-2.4-5.6-0.3-11.4,2-16.6
				c-8.8-1.5-21.7-2.1-24.2-12.3c-0.8-3.3-0.9-7,0.2-10.2c1.6-4.7,5.5-5,9.7-6.4c17.7-5.8,34.3-15.3,53.4-16.7
				c10.2-0.8,20.5-1.1,30.8-2.2c10.3-1.1,20.2-2.9,30.5-1.7c4.4,0.5,9.5,0.1,13.7,0.9c4.1,0.8,4.6,5.6,1.5,8.3c-3,2.7-7.4,1-11,1.3
				c-5.1,0.4-9.4,2.8-14.1,4.4c-11.7,3.7-24.5,6.4-36.6,7.7c-6.5,0.7-12.7,0.8-19.1,2.6c-5.8,1.6-11.6,3.4-17.4,4.9
				c6.4,1.7,18.7,1.5,20.8,9.3c1,3.7-0.1,8.7-3.3,11c-1.9,1.3-5.9,0.7-7.1,2.7c5,0.6,10.7-3.2,13.5,2.3c3.1,6.3,0.1,11.3-4,15.9
				c3.6-0.6,7.2,0.1,10.8-0.4c2.8-0.4,5.4-1.2,8-0.3c1.3,0.4,1.1,1.6,2.8,1.6c1.2,0,3-1.3,4.1-1.8c4-1.9,8.1-3.5,12.2-5.1
				c5-2,9.8-3.5,14.8-4.7c6.9-1.7,13.9-6.1,20.6-8.5c2.9-1,6.5-2.1,8-5.1c1.5-3.1,0.3-7.6,0.3-10.8c-0.3-9.2-0.1-18.3-0.1-27.5
				c0-7.7,0.2-15.3,0.9-22.9c0.8-9.2,0.1-18.3,0.4-27.5c0.3-8.4-0.4-16.9-0.2-25.3c0.3-9.4,0.7-18.8,0.8-28.2
				c0.2-16.9,0.7-33.8,1.1-50.7c0.3-17.4,2.2-34.7,5.9-51.7c1.7-7.6,3.8-15.3,6.7-22.6c0.9-2.3,1.9-2.4-0.3-3.7
				c-1.3-0.8-2.9,0.1-4.2,0.3c-2.7,0.4-5.1,0.5-7.8,0.4c-15.7-0.9-32-0.2-47.7,1.2c-8.1,0.7-16.3,1.4-24.5,1.7
				c-8.2,0.3-16.3,1.6-24.5,1c-13.7-1-29.3,0.6-41-8.2c-12.5-9.4-11.3-26-3.3-38.1c8.9-13.3,23.8-20.8,36.2-30.1
				c12.2-9.1,26.6-15.8,39.9-23.2c28.5-15.8,59.1-30.3,89.8-41.2c31.2-11.1,62.5-23.8,96.5-21.6c17.2,1.1,36.5,1.7,51.7,10.9
				c8.1,4.9,16,10,22.9,16.4c3.3,3,6.2,6.8,9.7,9.6c3.3,2.6,6.4,0.8,10.2-0.1c-2.6-8.5-5.3-17-7.9-25.5c-3.6,2.8-8.6,3.9-13.4,2.9
				c-5.7-1.2-5.3-3.7-4.8-8.6c0.2-2.3,0.9-1.9-1.1-3.3c-1.6-1.2-4.6-1.6-6.4-2.6c-4.7-2.5-8.7-6.3-10.4-11.4
				c-1.7-5.1-0.5-9.9,0.6-14.9c1.3-6.1-2-3.5-5.8-6.4c-1.7-1.2-2.3-2.3-2-4.4c0.2-1.7,3.5-4.1,3.4-5.7c-0.2-2-1.3-1.8-2.9-3
				c-1.7-1.3-3-2.9-3.7-5c-1.6-4.4,1.7-7.1,3.1-11.2c0.7-2,1.3-3.7,2.6-5.3c2.3-2.9,3.2-2.9,6.5-2.8c2.7,0,2.7-0.2,4.8-2.7
				c0.8-1,1.6-1.9,2.3-3c1.2-1.8,1.5-1.5,0.2-2.9c-3.9-4.3-5.6,2.4-9,2c-4-0.5-4.7-6.7-7.1-8.8c-1.7-1.5-3.7-0.9-5.6-1.9
				c-2.3-1.2-2.8-3.5-4.3-5.5c-2.4-3.1-6-3.7-7.6-7.7c-0.9-2.3-1.1-4.6-1.2-7c-0.3-3.4-1.2-6.1-2.2-9.4c-1-3.3-0.8-5.7,0.9-8.8
				c1.7-3.1,1.9-4.2,1.5-7.7c-0.3-2.7-0.4-5.1,1-7.5c1.5-2.6,1.8-3.9,2.3-6.9c0.4-2.6,1.3-4.5,3.8-5.5c1.7-0.7,3.6,0.1,4.8-1.6
				c1.2-1.7,0.9-4.3,2.1-6.2C309.3,9.2,312.4,8.7,315.7,8.1L315.7,8.1z"/>
			<path id="react-path-124" class="st2" d="M415.5,141.5c-1.2-2.8-5.1-15.5,1.4-15.5c5.1-0.1,3.5,11,3.6,13.7
				c0.1,5.1,5.4,5.8,7.4,10.4c2.3,5.4,0.7,11.7-2.9,16.1c-2.8,3.3-8,7.1-11.8,3.1c-4.2-4.5-0.2-7.1,2.8-9.9c4.3-4.1-3.9-5.3-6-8.6
				C406.3,145.1,410.2,142.1,415.5,141.5"/>
			<path id="react-path-125" class="st2" d="M397,144.4c-0.6,2.6-0.4,8.6-3.2,10c-4.8,2.4-5.9-9-5.8-11.5c0-2.7,1-9,4.9-8.2
				C397.3,135.6,394.8,143.8,397,144.4"/>
			<path id="react-path-126" class="st2" d="M414.8,177.5c7,0.2,6.6,8.6-0.1,8.9C408.4,186.7,408.6,177.3,414.8,177.5"/>
			<path id="react-path-127" class="st2" d="M429.8,302.7c-0.7,2.8-2.2,5.4-4.5,7.2C425.9,308.7,428.2,302.2,429.8,302.7"/>
		</g>
	</g>
</g>
</svg>
